<svg width="16" height="16" viewBox="0 0 16 16" fill="none" xmlns="http://www.w3.org/2000/svg">
    <path
        d="M6.14926 4.02039C7.11194 4.02039 7.8798 4.02023 8.49594 4.07605C9.12125 4.13276 9.65789 4.25194 10.1414 4.53113C10.7201 4.86536 11.2008 5.34597 11.535 5.92468C11.8142 6.40824 11.9334 6.94488 11.9901 7.57019C12.0459 8.18631 12.0457 8.95426 12.0457 9.91687C12.0457 10.8795 12.0459 11.6474 11.9901 12.2635C11.9334 12.8889 11.8142 13.4255 11.535 13.9091C11.2008 14.4877 10.7201 14.9684 10.1414 15.3026C9.65789 15.5818 9.12125 15.701 8.49594 15.7577C7.87981 15.8135 7.11193 15.8134 6.14926 15.8134C5.18664 15.8134 4.41871 15.8135 3.80258 15.7577C3.17727 15.701 2.64063 15.5818 2.15707 15.3026C1.57837 14.9684 1.09775 14.4877 0.763519 13.9091C0.484335 13.4255 0.365153 12.8889 0.308441 12.2635C0.252618 11.6474 0.252777 10.8795 0.252777 9.91687C0.252777 8.95425 0.252634 8.18632 0.308441 7.57019C0.365153 6.94488 0.484335 6.40824 0.763519 5.92468C1.09774 5.34596 1.57836 4.86535 2.15707 4.53113C2.64063 4.25194 3.17727 4.13276 3.80258 4.07605C4.41871 4.02024 5.18663 4.02039 6.14926 4.02039ZM6.14926 5.37781C5.16178 5.37781 4.46631 5.37768 3.92563 5.42664C3.39431 5.47479 3.07856 5.5658 2.83578 5.70593C2.46317 5.92112 2.15351 6.23077 1.93832 6.60339C1.7982 6.84617 1.70718 7.16192 1.65903 7.69324C1.61007 8.23391 1.6102 8.9294 1.6102 9.91687C1.6102 10.9044 1.61006 11.5998 1.65903 12.1405C1.70718 12.6718 1.7982 12.9876 1.93832 13.2303C2.15352 13.6029 2.46318 13.9126 2.83578 14.1278C3.07856 14.2679 3.39431 14.3589 3.92563 14.4071C4.46631 14.4561 5.16179 14.4559 6.14926 14.4559C7.13679 14.4559 7.83221 14.4561 8.37289 14.4071C8.90422 14.3589 9.21996 14.2679 9.46274 14.1278C9.83532 13.9126 10.145 13.6029 10.3602 13.2303C10.5003 12.9876 10.5913 12.6718 10.6395 12.1405C10.6885 11.5998 10.6883 10.9044 10.6883 9.91687C10.6883 8.92941 10.6885 8.23391 10.6395 7.69324C10.5913 7.16192 10.5003 6.84617 10.3602 6.60339C10.145 6.23078 9.83533 5.92113 9.46274 5.70593C9.21996 5.5658 8.90421 5.47479 8.37289 5.42664C7.83221 5.37766 7.13679 5.37781 6.14926 5.37781ZM9.80161 0.368042C10.7638 0.368042 11.5314 0.367947 12.1473 0.423706C12.7725 0.480374 13.3093 0.598826 13.7928 0.877808C14.3716 1.21198 14.8521 1.69361 15.1864 2.27234C15.4655 2.75581 15.5857 3.29171 15.6424 3.91687C15.6983 4.53307 15.6971 5.30167 15.6971 6.26453V7.82996C15.6971 8.29271 15.6989 8.59 15.6649 8.84851C15.4668 10.3526 14.4009 11.5739 12.9832 11.9989V10.5468C13.6973 10.1904 14.2104 9.49669 14.3192 8.67175C14.3387 8.52354 14.3407 8.33586 14.3407 7.82996V6.26453C14.3407 5.27713 14.3398 4.58155 14.2909 4.04089C14.2427 3.50975 14.1526 3.19379 14.0125 2.95105C13.7974 2.57856 13.4875 2.26876 13.1151 2.05359C12.8723 1.91353 12.5564 1.82244 12.0252 1.77429C11.4847 1.72534 10.7888 1.72546 9.80161 1.72546H7.71469C6.75617 1.72565 5.92662 2.27704 5.52328 3.07898H4.07016C4.54218 1.51138 5.99317 0.368253 7.71469 0.368042H9.80161Z"
        fill="currentColor"></path>
</svg>